<svg width="286" height="56" viewBox="0 0 286 56" fill="none" xmlns="http://www.w3.org/2000/svg">
<path d="M38.7 13.3333V13.8333H39.2H44.8C47.6271 13.8333 49.9 16.0322 49.9 18.6667V50.6667C49.9 53.3011 47.6271 55.5 44.8 55.5H5.6C2.77287 55.5 0.5 53.3011 0.5 50.6667V18.6667C0.5 16.0322 2.77287 13.8333 5.6 13.8333H11.2H11.7V13.3333C11.7 6.16552 17.6129 0.5 25.2 0.5C32.7871 0.5 38.7 6.16552 38.7 13.3333ZM33.6 13.8333H34.1V13.3333C34.1 8.50115 30.2129 4.83333 25.2 4.83333C20.1871 4.83333 16.3 8.50115 16.3 13.3333V13.8333H16.8H33.6ZM44.8 51.1667H45.3V50.6667V18.6667V18.1667H44.8H5.6H5.1V18.6667V50.6667V51.1667H5.6H44.8Z" fill="#7A5AF8" stroke="#7A5AF8"/>
<path d="M19.3121 27.6343C19.3121 28.6664 18.4755 29.503 17.4434 29.503C16.4114 29.503 15.5747 28.6664 15.5747 27.6343C15.5747 26.6023 16.4114 25.7656 17.4434 25.7656C18.4755 25.7656 19.3121 26.6023 19.3121 27.6343Z" fill="#7A5AF8" stroke="#7A5AF8"/>
<mask id="path-3-inside-1_549_823" fill="white">
<path fill-rule="evenodd" clip-rule="evenodd" d="M20.5646 27.6345C20.5646 29.3589 19.1666 30.7568 17.4422 30.7568C15.7178 30.7568 14.3198 29.3589 14.3198 27.6345C14.3198 25.91 15.7178 24.5121 17.4422 24.5121C19.1666 24.5121 20.5646 25.91 20.5646 27.6345ZM19.8109 27.6345C19.8109 28.9427 18.7504 30.0032 17.4422 30.0032C16.134 30.0032 15.0735 28.9427 15.0735 27.6345C15.0735 26.3263 16.134 25.2658 17.4422 25.2658C18.7504 25.2658 19.8109 26.3263 19.8109 27.6345Z"/>
</mask>
<path fill-rule="evenodd" clip-rule="evenodd" d="M20.5646 27.6345C20.5646 29.3589 19.1666 30.7568 17.4422 30.7568C15.7178 30.7568 14.3198 29.3589 14.3198 27.6345C14.3198 25.91 15.7178 24.5121 17.4422 24.5121C19.1666 24.5121 20.5646 25.91 20.5646 27.6345ZM19.8109 27.6345C19.8109 28.9427 18.7504 30.0032 17.4422 30.0032C16.134 30.0032 15.0735 28.9427 15.0735 27.6345C15.0735 26.3263 16.134 25.2658 17.4422 25.2658C18.7504 25.2658 19.8109 26.3263 19.8109 27.6345Z" fill="#7A5AF8"/>
<path d="M17.4422 31.7568C19.7189 31.7568 21.5646 29.9112 21.5646 27.6345H19.5646C19.5646 28.8066 18.6144 29.7568 17.4422 29.7568V31.7568ZM13.3198 27.6345C13.3198 29.9112 15.1655 31.7568 17.4422 31.7568V29.7568C16.27 29.7568 15.3198 28.8066 15.3198 27.6345H13.3198ZM17.4422 23.5121C15.1655 23.5121 13.3198 25.3577 13.3198 27.6345H15.3198C15.3198 26.4623 16.27 25.5121 17.4422 25.5121V23.5121ZM21.5646 27.6345C21.5646 25.3577 19.7189 23.5121 17.4422 23.5121V25.5121C18.6144 25.5121 19.5646 26.4623 19.5646 27.6345H21.5646ZM17.4422 31.0032C19.3027 31.0032 20.8109 29.4949 20.8109 27.6345H18.8109C18.8109 28.3904 18.1981 29.0032 17.4422 29.0032V31.0032ZM14.0735 27.6345C14.0735 29.4949 15.5817 31.0032 17.4422 31.0032V29.0032C16.6863 29.0032 16.0735 28.3904 16.0735 27.6345H14.0735ZM17.4422 24.2658C15.5817 24.2658 14.0735 25.774 14.0735 27.6345H16.0735C16.0735 26.8786 16.6863 26.2658 17.4422 26.2658V24.2658ZM20.8109 27.6345C20.8109 25.774 19.3027 24.2658 17.4422 24.2658V26.2658C18.1981 26.2658 18.8109 26.8786 18.8109 27.6345H20.8109Z" fill="#7A5AF8" mask="url(#path-3-inside-1_549_823)"/>
<path d="M20.1723 34.8737L20.1724 34.8736C19.5966 34.0271 18.4447 33.8009 17.5909 34.3701C16.8763 34.8465 16.5957 35.73 16.8516 36.508L18.3501 35.509C18.5799 35.3558 18.8903 35.4179 19.0435 35.6476C19.1967 35.8774 19.1346 36.1878 18.9048 36.341C18.9047 36.3411 18.9046 36.3412 18.9045 36.3412C18.1271 36.8595 17.6566 37.1734 17.372 37.3634C17.4556 37.4677 17.5565 37.5884 17.6749 37.7216C18.0379 38.13 18.5727 38.6639 19.2828 39.1965C20.7087 40.2659 22.8689 41.3467 25.7336 41.3467C28.5983 41.3467 30.7585 40.2659 32.1844 39.1965C32.8945 38.6639 33.4293 38.13 33.7923 37.7216C33.9107 37.5884 34.0116 37.4677 34.0952 37.3634C33.8105 37.1733 33.34 36.8594 32.5624 36.341C32.3326 36.1878 32.2705 35.8774 32.4237 35.6476C32.5769 35.4179 32.8873 35.3558 33.1171 35.509C33.1281 35.5163 33.139 35.5236 33.1499 35.5308L34.6156 36.508C34.8715 35.73 34.5909 34.8465 33.8763 34.3701C33.0225 33.8009 31.8706 34.0271 31.2948 34.8736L31.2888 34.8824L31.2888 34.8823C31.2814 34.8926 31.2659 34.9141 31.2423 34.9451L31.2423 34.9451C31.1941 35.0084 31.1129 35.1104 30.9989 35.2387L30.6917 34.9656L30.9989 35.2387C30.7697 35.4965 30.4163 35.8508 29.942 36.2065C28.9987 36.914 27.6059 37.6093 25.7336 37.6093C23.8613 37.6093 22.4685 36.914 21.5252 36.2065C21.051 35.8508 20.6975 35.4965 20.4683 35.2387C20.3544 35.1104 20.2731 35.0084 20.225 34.9451L20.1723 34.8737ZM20.1723 34.8737L20.1785 34.8823M20.1723 34.8737L20.1785 34.8823M20.1785 34.8823C20.1857 34.8926 20.2013 34.914 20.225 34.9451L20.1785 34.8823ZM34.5122 37.6425C34.5125 37.6422 34.5128 37.6418 34.513 37.6415L34.4958 37.63C34.5026 37.6354 34.5075 37.6391 34.5091 37.6403L34.5092 37.6403L34.5122 37.6425ZM34.3847 36.9762L34.3838 36.9775L34.3936 36.963L34.3928 36.9642L34.3925 36.9647L34.3909 36.9671L34.3901 36.9683L34.3863 36.9738L34.3847 36.9762ZM34.166 38.0538C34.3031 37.8995 34.4184 37.7606 34.5121 37.6426H16.9551C17.0488 37.7606 17.1641 37.8995 17.3012 38.0538C17.6821 38.4823 18.2412 39.0403 18.9828 39.5965C20.4731 40.7142 22.736 41.8467 25.7336 41.8467C28.7312 41.8467 30.9941 40.7142 32.4844 39.5965C33.226 39.0403 33.7851 38.4823 34.166 38.0538Z" fill="#7A5AF8" stroke="#7A5AF8" stroke-linecap="round" stroke-linejoin="round"/>
<path d="M35.8924 27.6343C35.8924 28.6664 35.0558 29.503 34.0237 29.503C32.9917 29.503 32.155 28.6664 32.155 27.6343C32.155 26.6023 32.9917 25.7656 34.0237 25.7656C35.0558 25.7656 35.8924 26.6023 35.8924 27.6343Z" fill="#7A5AF8" stroke="#7A5AF8"/>
<mask id="path-7-inside-2_549_823" fill="white">
<path fill-rule="evenodd" clip-rule="evenodd" d="M37.1469 27.6345C37.1469 29.3589 35.7489 30.7568 34.0245 30.7568C32.3 30.7568 30.9021 29.3589 30.9021 27.6345C30.9021 25.91 32.3 24.5121 34.0245 24.5121C35.7489 24.5121 37.1469 25.91 37.1469 27.6345ZM36.3932 27.6345C36.3932 28.9427 35.3327 30.0032 34.0245 30.0032C32.7163 30.0032 31.6558 28.9427 31.6558 27.6345C31.6558 26.3263 32.7163 25.2658 34.0245 25.2658C35.3327 25.2658 36.3932 26.3263 36.3932 27.6345Z"/>
</mask>
<path fill-rule="evenodd" clip-rule="evenodd" d="M37.1469 27.6345C37.1469 29.3589 35.7489 30.7568 34.0245 30.7568C32.3 30.7568 30.9021 29.3589 30.9021 27.6345C30.9021 25.91 32.3 24.5121 34.0245 24.5121C35.7489 24.5121 37.1469 25.91 37.1469 27.6345ZM36.3932 27.6345C36.3932 28.9427 35.3327 30.0032 34.0245 30.0032C32.7163 30.0032 31.6558 28.9427 31.6558 27.6345C31.6558 26.3263 32.7163 25.2658 34.0245 25.2658C35.3327 25.2658 36.3932 26.3263 36.3932 27.6345Z" fill="#7A5AF8"/>
<path d="M34.0245 31.7568C36.3012 31.7568 38.1469 29.9112 38.1469 27.6345H36.1469C36.1469 28.8066 35.1966 29.7568 34.0245 29.7568V31.7568ZM29.9021 27.6345C29.9021 29.9112 31.7478 31.7568 34.0245 31.7568V29.7568C32.8523 29.7568 31.9021 28.8066 31.9021 27.6345H29.9021ZM34.0245 23.5121C31.7478 23.5121 29.9021 25.3577 29.9021 27.6345H31.9021C31.9021 26.4623 32.8523 25.5121 34.0245 25.5121V23.5121ZM38.1469 27.6345C38.1469 25.3577 36.3012 23.5121 34.0245 23.5121V25.5121C35.1966 25.5121 36.1469 26.4623 36.1469 27.6345H38.1469ZM34.0245 31.0032C35.885 31.0032 37.3932 29.4949 37.3932 27.6345H35.3932C35.3932 28.3904 34.7804 29.0032 34.0245 29.0032V31.0032ZM30.6558 27.6345C30.6558 29.4949 32.164 31.0032 34.0245 31.0032V29.0032C33.2686 29.0032 32.6558 28.3904 32.6558 27.6345H30.6558ZM34.0245 24.2658C32.164 24.2658 30.6558 25.774 30.6558 27.6345H32.6558C32.6558 26.8786 33.2686 26.2658 34.0245 26.2658V24.2658ZM37.3932 27.6345C37.3932 25.774 35.885 24.2658 34.0245 24.2658V26.2658C34.7804 26.2658 35.3932 26.8786 35.3932 27.6345H37.3932Z" fill="#7A5AF8" mask="url(#path-7-inside-2_549_823)"/>
<path d="M111.317 4.92522V15.1759H93.0501C92.9692 15.8116 92.868 16.4473 92.7467 17.083C92.6253 17.679 92.4634 18.2551 92.2612 18.8113L114.047 23.9963L107.858 33.1146L85.1609 27.3933C82.7334 29.062 79.8205 30.4526 76.4221 31.5651C73.0237 32.6379 69.1802 33.353 64.8917 33.7106L59.7334 24.1155C65.802 23.6784 70.6164 22.705 74.1767 21.1952C77.7774 19.6854 79.8407 17.679 80.3667 15.1759H62.3429V4.92522H111.317ZM60.583 36.5713H113.077V46.822H93.1108V55.9999H80.5487V46.822H60.583V36.5713Z" fill="#7A5AF8"/>
<path d="M166.296 25.4266H120.963V4.32925H166.296V25.4266ZM137.955 43.2462V37.8824H117.383V27.6317H169.876V37.8824H150.517V43.2462H137.955ZM132.918 40.1471V45.1533H167.51V55.3444H120.356V40.1471H132.918ZM133.525 13.09V16.6658H153.734V13.09H133.525Z" fill="#7A5AF8"/>
<path d="M177.096 4.92522H223.642V38.836H206.65V43.9017H226.616V54.1524H174.122V43.9017H194.088V38.836H177.096V4.92522ZM189.658 28.5853H211.08V15.1759H189.658V28.5853Z" fill="#7A5AF8"/>
<path d="M264.421 29.2408C264.421 34.0483 263.895 38.0612 262.843 41.2795C261.831 44.458 260.496 47.0008 258.837 48.9079C257.219 50.815 255.378 52.1659 253.315 52.9605C251.252 53.7551 249.188 54.1524 247.125 54.1524C245.021 54.1524 242.938 53.7551 240.874 52.9605C238.811 52.1659 236.95 50.815 235.291 48.9079C233.673 47.0008 232.358 44.458 231.347 41.2795C230.335 38.0612 229.83 34.0483 229.83 29.2408C229.83 24.4333 230.335 20.4403 231.347 17.2618C232.358 14.0436 233.673 11.4809 235.291 9.57379C236.95 7.66669 238.811 6.31582 240.874 5.52119C242.938 4.72656 245.021 4.32925 247.125 4.32925C249.188 4.32925 251.252 4.72656 253.315 5.52119C255.378 6.31582 257.219 7.66669 258.837 9.57379C260.496 11.4809 261.831 14.0436 262.843 17.2618C263.895 20.4403 264.421 24.4333 264.421 29.2408ZM280.32 21.1952H285.6V31.4459H280.32V54.1524H267.758V3.73328H280.32V21.1952ZM242.331 29.2408C242.331 32.3002 242.472 34.7834 242.756 36.6905C243.039 38.5976 243.403 40.0875 243.848 41.1603C244.293 42.233 244.799 42.968 245.365 43.3654C245.972 43.7229 246.559 43.9017 247.125 43.9017C247.651 43.9017 248.197 43.7229 248.764 43.3654C249.33 42.968 249.836 42.2529 250.281 41.2199C250.766 40.1471 251.151 38.6572 251.434 36.7501C251.717 34.8032 251.859 32.2803 251.859 29.1812C251.859 26.1219 251.717 23.6387 251.434 21.7316C251.151 19.8245 250.766 18.3544 250.281 17.3214C249.836 16.2487 249.33 15.5335 248.764 15.1759C248.197 14.7786 247.651 14.5799 247.125 14.5799C246.559 14.5799 245.972 14.7786 245.365 15.1759C244.799 15.5335 244.293 16.2487 243.848 17.3214C243.403 18.3942 243.039 19.8841 242.756 21.7912C242.472 23.6983 242.331 26.1815 242.331 29.2408Z" fill="#7A5AF8"/>
</svg>
