<svg width="274" height="66" viewBox="0 0 274 66" fill="none" xmlns="http://www.w3.org/2000/svg">
<path d="M42.0432 17.1547H37.5532C37.5532 10.9703 32.6141 6.11108 26.328 6.11108C20.042 6.11108 15.1029 10.9703 15.1029 17.1547H10.6129C8.14333 17.1547 6.1228 19.1426 6.1228 21.5722V48.077C6.1228 50.5066 8.14333 52.4944 10.6129 52.4944H42.0432C44.5128 52.4944 46.5333 50.5066 46.5333 48.077V21.5722C46.5333 19.1426 44.5128 17.1547 42.0432 17.1547ZM26.328 10.5285C30.1446 10.5285 33.0631 13.3999 33.0631 17.1547H19.593C19.593 13.3999 22.5115 10.5285 26.328 10.5285ZM42.0432 48.077H10.6129V21.5722H42.0432V48.077Z" fill="#7A5AF8"/>
<path d="M19.7612 31.3195C20.5982 31.3195 21.2766 30.4166 21.2766 29.3028C21.2766 28.189 20.5982 27.2861 19.7612 27.2861C18.9243 27.2861 18.2458 28.189 18.2458 29.3028C18.2458 30.4166 18.9243 31.3195 19.7612 31.3195Z" fill="#7A5AF8"/>
<path fill-rule="evenodd" clip-rule="evenodd" d="M22.4858 34.2185C21.941 33.3049 20.8513 33.0608 20.0435 33.6751C19.2311 34.2929 19.0116 35.5449 19.5532 36.4716L21.0242 35.353C19.5532 36.4716 19.5537 36.4724 19.5541 36.4732L19.5551 36.4748L19.5571 36.4782L19.5617 36.486L19.573 36.5049C19.5815 36.519 19.5919 36.5359 19.6042 36.5556C19.6287 36.595 19.6609 36.6454 19.7008 36.7051C19.7805 36.8245 19.8916 36.9822 20.0343 37.1654C20.3186 37.5302 20.7359 38.0052 21.2894 38.4787C22.4017 39.4303 24.0906 40.3945 26.3279 40.3945C28.5652 40.3945 30.2542 39.4303 31.3665 38.4787C31.92 38.0052 32.3373 37.5302 32.6215 37.1654C32.7643 36.9822 32.8754 36.8245 32.9551 36.7051C32.995 36.6454 33.0272 36.595 33.0517 36.5556C33.064 36.5359 33.0744 36.519 33.0829 36.5049L33.0942 36.486L33.0988 36.4782L33.1008 36.4748L33.1018 36.4732C33.1022 36.4724 33.1027 36.4716 31.6317 35.353L33.1027 36.4716C33.6443 35.5449 33.4247 34.2929 32.6123 33.6751C31.8046 33.0608 30.7149 33.3049 30.1701 34.2185C30.1669 34.2236 30.1577 34.2382 30.1425 34.2608C30.1118 34.3069 30.0571 34.3855 29.9788 34.4859C29.8211 34.6883 29.5754 34.9695 29.245 35.2522C28.5894 35.813 27.6265 36.3613 26.3279 36.3613C25.0294 36.3613 24.0665 35.813 23.4109 35.2522C23.0804 34.9695 22.8348 34.6883 22.677 34.4859C22.5988 34.3855 22.5441 34.3069 22.5133 34.2608C22.4982 34.2382 22.489 34.2236 22.4858 34.2185Z" fill="#7A5AF8"/>
<path d="M32.8948 31.3195C33.7317 31.3195 34.4102 30.4166 34.4102 29.3028C34.4102 28.189 33.7317 27.2861 32.8948 27.2861C32.0579 27.2861 31.3794 28.189 31.3794 29.3028C31.3794 30.4166 32.0579 31.3195 32.8948 31.3195Z" fill="#7A5AF8"/>
<path d="M104.419 8.17025V17.2791H88.1775C88.1056 17.844 88.0156 18.4089 87.9077 18.9737C87.7998 19.5033 87.6559 20.0153 87.476 20.5095L106.847 25.1169L101.343 33.2195L81.1629 28.1355C79.0045 29.6184 76.4145 30.8541 73.3928 31.8426C70.3711 32.7959 66.9538 33.4314 63.1407 33.7491L58.5542 25.2228C63.9501 24.8345 68.2308 23.9695 71.3964 22.6279C74.5979 21.2863 76.4325 19.5033 76.9001 17.2791H60.8744V8.17025H104.419ZM59.3096 36.2911H105.984V45.3999H88.2315V53.5555H77.062V45.3999H59.3096V36.2911Z" fill="#7A5AF8"/>
<path d="M153.304 26.3879H112.996V7.64067H153.304V26.3879ZM128.105 42.2224V37.4562H109.813V28.3474H156.487V37.4562H139.274V42.2224H128.105ZM123.626 39.4686V43.9171H154.383V52.973H112.457V39.4686H123.626ZM124.166 15.4255V18.603H142.134V15.4255H124.166Z" fill="#7A5AF8"/>
<path d="M162.906 8.17025H204.292V38.3035H189.184V42.805H206.936V51.9138H160.262V42.805H178.014V38.3035H162.906V8.17025ZM174.075 29.1947H193.123V17.2791H174.075V29.1947Z" fill="#7A5AF8"/>
<path d="M240.55 29.7772C240.55 34.0492 240.083 37.6151 239.148 40.4748C238.248 43.2993 237.061 45.5588 235.586 47.2535C234.147 48.9482 232.511 50.1485 230.676 50.8547C228.841 51.5608 227.007 51.9138 225.172 51.9138C223.302 51.9138 221.449 51.5608 219.614 50.8547C217.78 50.1485 216.125 48.9482 214.65 47.2535C213.211 45.5588 212.042 43.2993 211.143 40.4748C210.244 37.6151 209.794 34.0492 209.794 29.7772C209.794 25.5053 210.244 21.9571 211.143 19.1326C212.042 16.2729 213.211 13.9957 214.65 12.301C216.125 10.6063 217.78 9.40594 219.614 8.69983C221.449 7.99372 223.302 7.64067 225.172 7.64067C227.007 7.64067 228.841 7.99372 230.676 8.69983C232.511 9.40594 234.147 10.6063 235.586 12.301C237.061 13.9957 238.248 16.2729 239.148 19.1326C240.083 21.9571 240.55 25.5053 240.55 29.7772ZM254.688 22.6279H259.382V31.7367H254.688V51.9138H243.518V7.11108H254.688V22.6279ZM220.91 29.7772C220.91 32.4958 221.035 34.7024 221.287 36.397C221.539 38.0917 221.863 39.4157 222.258 40.3689C222.654 41.3222 223.104 41.9753 223.607 42.3284C224.147 42.6461 224.669 42.805 225.172 42.805C225.64 42.805 226.126 42.6461 226.629 42.3284C227.133 41.9753 227.582 41.3398 227.978 40.4219C228.41 39.4686 228.751 38.1447 229.003 36.45C229.255 34.72 229.381 32.4781 229.381 29.7243C229.381 27.0058 229.255 24.7992 229.003 23.1045C228.751 21.4098 228.41 20.1035 227.978 19.1856C227.582 18.2323 227.133 17.5968 226.629 17.2791C226.126 16.926 225.64 16.7495 225.172 16.7495C224.669 16.7495 224.147 16.926 223.607 17.2791C223.104 17.5968 222.654 18.2323 222.258 19.1856C221.863 20.1388 221.539 21.4628 221.287 23.1575C221.035 24.8521 220.91 27.0587 220.91 29.7772Z" fill="#7A5AF8"/>
</svg>
